<svg
  width="122"
  height="24"
  viewBox="0 0 122 24"
  fill="none"
  xmlns="http://www.w3.org/2000/svg"
>
  <path
    fill-rule="evenodd"
    clip-rule="evenodd"
    d="M121.5 15.758C121.483 17.442 120.708 19.136 119.516 20.186C118.32 21.252 116.71 21.674 114.994 21.674H106.748V17.519H106.952C106.952 17.519 114.319 17.519 114.984 17.519C115.312 17.521 115.904 17.512 116.39 17.283C116.871 17.048 117.26 16.648 117.269 15.711C117.26 14.91 116.902 14.575 116.437 14.367C115.968 14.167 115.389 14.159 115.057 14.16C115.054 14.16 115.048 14.16 115.036 14.16H112.423C110.556 14.161 109.045 14.013 107.833 12.937C106.635 11.877 105.928 10.119 105.926 8.42401L105.925 8.42201C105.928 6.72201 106.708 5.00001 107.902 3.94701C109.101 2.87401 110.706 2.46801 112.423 2.46801H119.966V6.64701L112.387 6.64601C112.369 6.64601 112.354 6.64601 112.343 6.64601C111.969 6.64501 111.377 6.65601 110.908 6.88101C110.444 7.11201 110.077 7.50201 110.068 8.42401C110.078 9.22001 110.434 9.56401 110.918 9.78301C111.405 9.99201 112.021 10.009 112.423 10.008H114.994C116.768 10.008 118.319 10.171 119.529 11.248H119.528C120.725 12.305 121.498 14.008 121.5 15.711V15.758ZM91.833 21.687C90.295 21.687 89.141 21.107 88.195 20.237C87.217 19.369 86.668 18.169 86.668 16.879L86.669 7.29901C86.668 6.00701 87.218 4.81201 88.191 3.93601C89.143 3.07501 90.287 2.49301 91.838 2.49001H104.101V6.67001H91.44C91.271 6.67901 91.202 6.69701 91.042 6.83101C90.913 6.94201 90.82 7.11601 90.82 7.33801V10.033H102.238L102.217 14.174H90.82V16.879C90.821 17.102 90.912 17.267 91.037 17.384C91.202 17.519 91.274 17.539 91.431 17.546H103.897H104.101V21.687H91.843C91.839 21.687 91.836 21.687 91.833 21.687ZM78.984 7.25701C78.974 7.08901 78.957 7.02001 78.822 6.86101C78.709 6.73301 78.532 6.64001 78.313 6.64001H75.597V21.672L71.427 21.65L71.426 6.64001H68.703C68.479 6.64001 68.311 6.73101 68.194 6.85601C68.058 7.01801 68.038 7.09201 68.031 7.24701V21.468V21.671H63.861V7.65601C63.858 6.12401 64.443 4.97601 65.321 4.03401C66.194 3.06301 67.405 2.51601 68.703 2.51701H78.35C79.65 2.51601 80.854 3.06301 81.737 4.02901C82.604 4.97501 83.19 6.11101 83.193 7.65101V21.671H78.983L78.984 7.25701ZM56.111 5.41501V5.33801L60.513 0.424011V21.675H56.111V5.41501ZM47.908 18.614V18.691L43.711 23.438V6.64801H38.053V2.52501H53.588V6.64801H47.908V18.614ZM22.087 13.92V21.674H17.927V2.46901H26.217C28.164 2.46901 29.971 3.18701 31.295 4.39801C32.628 5.60501 33.441 7.34401 33.441 9.27301V9.29201C33.441 11.213 32.623 12.948 31.296 14.154C30.588 14.802 29.74 15.304 28.811 15.635L33.738 21.352L34.026 21.687H28.831L22.087 13.92ZM29.276 9.27901C29.268 7.92201 28.716 7.31601 28.062 6.98201C27.404 6.65301 26.62 6.64601 26.217 6.64801H22.087V11.911H26.217C26.648 11.913 27.432 11.905 28.083 11.577C28.727 11.244 29.268 10.639 29.276 9.27901ZM8.791 16.087V16.088H4.659V21.674H0.5V2.46901H8.791C10.738 2.46901 12.543 3.18701 13.868 4.39801C15.201 5.60501 16.015 7.34401 16.014 9.27301V9.29201C16.015 11.213 15.198 12.949 13.869 14.154C12.544 15.367 10.738 16.087 8.791 16.087ZM10.635 6.98201C9.977 6.65301 9.194 6.64601 8.791 6.64801H4.659V11.91L8.791 11.911C9.222 11.912 10.005 11.906 10.656 11.577C11.301 11.244 11.84 10.638 11.848 9.27901C11.84 7.92301 11.289 7.31501 10.635 6.98201Z"
    fill="white"
  />
</svg>
